# xmcd
#
# Track frame offsets:
#	151
#	28111
#	47594
#	71887
#	93109
#	114015
#	133817
#	153944
#	178649
#
# Disc length: 2446 seconds
#
# Revision: 0
# Processed by: cddbd v1.5PL3 Copyright (c) Steve Scherf et al.
# Submitted via: dBpowerAMP V4.0
#
DISCID=6e098c09
DTITLE=Free - Au Golf Drouot CD 2
DYEAR=1969
DGENRE=Blues
TTITLE0=Rock Me Baby
TTITLE1=The Worm
TTITLE2=Night Life
TTITLE3=Moonshine
TTITLE4=Walk In My Shadow
TTITLE5=Songs Of Yesterday
TTITLE6=Croosroads
TTITLE7=Waiting On You
TTITLE8=Outro
EXTD=Recorded Live in Paris Au Golf Drouot
EXTT0=
EXTT1=
EXTT2=
EXTT3=
EXTT4=
EXTT5=
EXTT6=
EXTT7=
EXTT8=
PLAYORDER=
